HIERARCHY
ROOT Hips
{
	OFFSET -3.958830 18.904000 13.208200
	CHANNELS 6 Xposition Yposition Zposition Zrotation Yrotation Xrotation 
	JOINT LHipJoint
	{
		OFFSET 0.000000 0.000000 0.000000
		CHANNELS 3 Zrotation Yrotation Xrotation
		JOINT LeftUpLeg
		{
			OFFSET 1.800000 -1.400000 0.085000
			CHANNELS 3 Zrotation Yrotation Xrotation
			JOINT LeftLeg
			{
				OFFSET 2.215000 -6.000000 0.000000
				CHANNELS 3 Zrotation Yrotation Xrotation
				JOINT LeftFoot
				{
					OFFSET 2.500000 -6.900000 0.000000
					CHANNELS 3 Zrotation Yrotation Xrotation
					JOINT LeftToeBase
					{
						OFFSET 0.200000 -0.500000 1.950000
						CHANNELS 3 Zrotation Yrotation Xrotation
						End Site
						{
							OFFSET 0.000000 0.000000 0.000000
						}
					}
				}
			}
		}
	}
	JOINT RHipJoint
	{
		OFFSET 0.000000 0.000000 0.000000
		CHANNELS 3 Zrotation Yrotation Xrotation
		JOINT RightUpLeg
		{
			OFFSET -1.800000 -1.400000 0.085000
			CHANNELS 3 Zrotation Yrotation Xrotation
			JOINT RightLeg
			{
				OFFSET -2.215000 -6.000000 0.000000
				CHANNELS 3 Zrotation Yrotation Xrotation
				JOINT RightFoot
				{
					OFFSET -2.500000 -6.900000 0.000000
					CHANNELS 3 Zrotation Yrotation Xrotation
					JOINT RightToeBase
					{
						OFFSET -0.200000 -0.500000 1.950000
						CHANNELS 3 Zrotation Yrotation Xrotation
						End Site
						{
							OFFSET 0.000000 0.000000 0.000000
						}
					}
				}
			}
		}
	}
	JOINT LowerBack
	{
		OFFSET 0.000000 0.000000 0.000000
		CHANNELS 3 Zrotation Yrotation Xrotation
		JOINT Spine
		{
			OFFSET -0.087000 1.940000 -0.288900
			CHANNELS 3 Zrotation Yrotation Xrotation
			JOINT Spine1
			{
				OFFSET 0.000000 1.950000 0.060000
				CHANNELS 3 Zrotation Yrotation Xrotation
				JOINT Neck
				{
					OFFSET 0.000000 0.000000 0.000000
					CHANNELS 3 Zrotation Yrotation Xrotation
					JOINT Neck1
					{
						OFFSET 0.000000 1.600000 0.340000
						CHANNELS 3 Zrotation Yrotation Xrotation
						JOINT Head
						{
							OFFSET 0.000000 1.667000 -0.240000
							CHANNELS 3 Zrotation Yrotation Xrotation
							End Site
							{
								OFFSET 0.000000 0.000000 0.000000
							}
						}
					}
				}
				JOINT LeftShoulder
				{
					OFFSET 0.000000 0.000000 0.000000
					CHANNELS 3 Zrotation Yrotation Xrotation
					JOINT LeftArm
					{
						OFFSET 2.700000 1.550000 -0.730000
						CHANNELS 3 Zrotation Yrotation Xrotation
						JOINT LeftForeArm
						{
							OFFSET 5.450000 0.000000 0.000000
							CHANNELS 3 Zrotation Yrotation Xrotation
							JOINT LeftHand
							{
								OFFSET 3.450000 0.000000 0.000000
								CHANNELS 3 Zrotation Yrotation Xrotation
								JOINT LeftHandIndex1
								{
									OFFSET 0.750000 0.000000 0.000000
									CHANNELS 3 Zrotation Yrotation Xrotation
									End Site
									{
										OFFSET 0.000000 0.000000 0.000000
									}
								}
							}
						}
					}
				}
				JOINT RightShoulder
				{
					OFFSET 0.000000 0.000000 0.000000
					CHANNELS 3 Zrotation Yrotation Xrotation
					JOINT RightArm
					{
						OFFSET -2.700000 1.550000 -0.730000
						CHANNELS 3 Zrotation Yrotation Xrotation
						JOINT RightForeArm
						{
							OFFSET -5.450000 0.000000 0.000000
							CHANNELS 3 Zrotation Yrotation Xrotation
							JOINT RightHand
							{
								OFFSET -3.450000 0.000000 0.000000
								CHANNELS 3 Zrotation Yrotation Xrotation
								JOINT RightHandIndex1
								{
									OFFSET -0.750000 0.000000 0.000000
									CHANNELS 3 Zrotation Yrotation Xrotation
									End Site
									{
										OFFSET 0.000000 0.000000 0.000000
									}
								}
							}
						}
					}
				}
			}
		}
	}
}
MOTION
Frames: 9
Frame Time: 0.016667
3.012680 17.511920 -9.396610 -42.223271 -53.007419 30.329127 -16.416554 14.082430 3.639952 21.357738 -1.799588 2.127197 -9.738224 5.719115 -2.603540 0.365066 6.044962 2.561568 0.568470 0.357520 0.462290 17.248069 -6.257338 4.980308 -39.096427 -3.198201 -26.180452 59.749995 -60.983733 53.410145 -2.893115 -12.667640 0.409537 0.155060 -0.025390 0.005010 -1.866657 -12.032097 -8.466784 34.713730 -12.198425 31.564984 -13.602878 -1.541071 -25.876296 14.537110 -5.434865 -13.577855 -38.892267 21.413924 27.767522 4.125510 8.124080 -4.543370 -7.087158 -3.243348 6.794141 -19.052252 -11.428021 0.826687 11.635609 -37.170362 -2.691728 -3.228024 3.317567 0.488820 -0.173910 0.140620 0.203100 -10.874262 -3.140813 -1.354529 36.689524 -18.613190 -11.814228 -7.010305 25.850797 2.004648 2.261388 -1.241152 -0.073140 0.178720 -0.220930 -0.135590 
3.078620 17.492200 -9.433280 -52.754557 -62.435126 35.896227 -16.961927 14.571157 3.659055 20.198301 -0.138865 8.535071 -8.313235 6.142963 -2.326672 0.592035 6.285020 2.449666 0.631300 0.409860 0.636200 16.640481 -6.545069 4.469186 -37.122493 -0.229822 -19.814016 66.186736 -55.263611 46.380294 -2.854769 -12.047960 0.520296 0.100340 -0.263210 0.053870 -1.645514 -13.162596 -8.798225 28.040877 -10.337080 38.183631 -10.261243 -0.120635 -13.334759 15.605819 -3.462828 -17.334518 -38.914773 23.142344 30.925805 -1.742980 12.355910 -9.127480 -15.460873 -12.247636 8.095138 -10.405955 -7.353122 -5.424432 10.563633 -47.789504 -4.646349 -3.025260 3.595436 0.596710 -0.282290 0.320010 0.141280 -7.210073 8.918841 4.212059 39.322282 -20.372237 -15.324795 -11.369551 35.703830 0.995227 2.097129 -1.417542 0.016650 0.059650 -0.293560 -0.210920 
3.066090 17.443130 -9.409150 -70.337633 -67.406827 54.808281 -16.742450 13.795998 3.485240 19.374007 0.083919 9.562216 -7.737394 5.811177 -3.221531 0.713048 5.956319 2.573758 0.612650 0.384190 0.669560 16.831653 -7.255059 4.768446 -38.518070 0.693678 -22.435510 73.061463 -53.588692 41.059060 -2.777934 -11.586398 0.661431 0.024840 -0.336640 0.060830 -2.109016 -12.159234 -8.831791 28.594199 -9.184098 36.256316 -9.666811 0.422684 -9.495134 14.034393 -5.398338 -17.871991 -34.580425 22.500862 32.843906 -4.414140 15.743610 -9.998370 -17.779850 -13.794421 6.536772 -6.924174 -4.046582 -4.851403 -2.874053 -60.033745 0.831005 -2.937166 3.789040 0.577670 -0.312460 0.353990 0.139630 -3.741607 15.077667 8.675824 38.498840 -21.065975 -16.862117 -13.077360 43.922313 -0.511670 2.028092 -1.535263 0.066200 -0.039750 -0.355300 -0.214950 
3.031730 17.387830 -9.370330 -82.488799 -67.942738 71.234585 -16.047809 13.283738 3.397383 20.407434 -0.557061 4.932560 -11.574443 6.385549 -0.457671 0.788474 5.625172 2.637624 0.602960 0.376080 0.709360 17.473839 -7.815507 4.874052 -38.387120 -0.910419 -25.005587 79.428615 -50.925291 34.010691 -2.736868 -11.077399 0.825266 -0.083910 -0.461420 0.068260 -2.418912 -10.014585 -8.882895 29.993778 -9.045888 30.157927 -8.781660 0.044522 -10.495970 10.859663 -5.817226 -17.160225 -25.056104 21.918713 41.494791 -5.505810 20.352250 -11.907020 -22.532599 -13.222787 4.147300 -0.601061 -3.845548 -0.567306 -28.958036 -67.833039 20.146532 -2.980414 3.844400 0.600590 -0.397410 0.441200 0.146320 5.271254 17.083294 12.169206 27.948248 -24.036771 -13.081443 -9.109619 47.649032 -0.261163 2.199904 -1.577927 0.143060 -0.180080 -0.451460 -0.214380 
3.036340 17.353760 -9.300620 -94.809261 -66.857870 82.562721 -15.710766 13.215678 3.313595 21.537613 -0.395038 5.368695 -12.496177 7.131762 1.905517 0.643056 5.959201 2.520493 0.606640 0.337700 0.740630 17.778160 -8.044219 4.662619 -35.729764 -0.211946 -21.099331 83.105483 -44.678767 27.871440 -2.606513 -10.769970 0.864870 -0.017130 -0.455880 0.033520 -2.550993 -9.080333 -8.729343 32.770587 -9.155201 29.600095 -9.757449 -0.222953 -2.361178 10.835409 -6.021321 -17.225164 -24.173035 15.455632 39.014432 -6.988980 14.157350 -13.146160 -20.175375 -17.682979 4.933671 -5.476255 -9.771599 -3.424869 -22.876182 -65.659258 14.113258 -2.903733 3.804630 0.598560 -0.367580 0.358600 0.098890 1.346070 20.831624 12.660398 35.837784 -22.901836 -18.908091 -16.326199 53.764820 -4.606424 1.927144 -1.605913 0.066410 -0.132080 -0.407150 -0.271280 
3.091800 17.350180 -9.277140 -106.588696 -66.625422 92.783693 -15.522701 13.249065 3.172626 20.957857 -0.212900 6.180608 -12.859200 7.590196 4.147584 0.407636 6.270892 2.416015 0.620310 0.267500 0.857910 17.976602 -8.136093 4.550934 -36.478104 -1.367446 -16.691962 88.723845 -41.028138 22.507166 -2.516679 -10.452852 0.875386 0.056970 -0.437410 0.057610 -2.560130 -8.009576 -8.739941 29.227689 -9.456413 29.718574 -7.950458 -3.822417 8.422492 9.865063 -5.064931 -16.450464 -18.334707 10.453000 37.013775 -9.984840 11.635480 -16.782760 -18.578138 -24.514492 6.224881 -4.580646 -11.910732 -8.497892 -13.338655 -63.252546 5.772289 -2.842184 3.873172 0.655560 -0.308810 0.300560 0.019700 -0.587964 25.233950 12.784205 36.664338 -15.071710 -22.286929 -22.185502 58.339887 -10.815364 1.711303 -1.533931 -0.050310 -0.074190 -0.337240 -0.387030 
3.140320 17.383500 -9.271460 -133.794841 -61.113838 120.415134 -15.493943 13.191742 3.036996 18.083516 0.636141 8.277595 -11.500494 6.871697 1.465110 0.370219 6.090824 2.481124 0.636490 0.308040 0.897100 18.115568 -7.551652 5.000213 -35.449501 0.769161 -22.122428 92.569768 -39.194665 21.409373 -2.556172 -10.535869 0.846653 0.108670 -0.451200 0.051190 -2.516366 -6.617329 -9.124196 24.742932 -7.945956 31.243623 -6.088899 -3.950101 12.996885 8.965566 -3.523911 -16.264998 -12.275695 9.041510 38.119879 -10.545810 11.960960 -18.676340 -19.661227 -27.690772 7.693884 -4.319783 -7.296834 -11.111272 -8.454741 -68.529757 1.766980 -2.867375 3.847476 0.645930 -0.290080 0.298430 -0.018580 1.600086 28.731459 12.716887 30.075238 -6.901515 -21.818818 -23.286333 61.629725 -14.336839 1.684165 -1.430277 -0.065280 -0.053900 -0.323350 -0.416590 
3.100490 17.361870 -9.256510 -144.756543 -52.768064 135.035991 -15.559727 12.994658 2.837494 17.590031 0.468462 6.367836 -10.762379 6.557462 1.223835 0.352356 5.813137 2.568429 0.519620 0.160040 0.776980 18.119511 -7.273987 5.407738 -34.655509 1.287154 -29.244864 96.772925 -39.205135 20.058359 -2.625130 -10.572159 0.890770 -0.034860 -0.413800 0.090860 -3.018587 -5.634129 -9.455202 25.450168 -8.670839 31.497668 -6.398001 -2.852949 5.534958 7.159099 -1.471089 -15.346850 -7.233748 6.878283 44.111995 -7.199170 10.320060 -19.509120 -22.961842 -23.760640 7.536645 -5.418272 -3.714000 -6.841311 -26.339641 -76.034625 16.693404 -3.061922 3.700880 0.710810 -0.326150 0.313730 -0.042810 8.540467 24.971938 11.288350 23.052580 -3.905056 -16.918306 -6.787994 67.804318 -5.712819 1.911638 -1.461173 -0.045750 -0.060720 -0.227850 -0.389500 
3.045570 17.346620 -9.236140 -148.444963 -45.987446 142.305488 -15.543542 12.563640 2.710272 19.222611 -0.034648 3.936868 -12.581332 6.928968 2.442746 0.333156 5.894040 2.538875 0.442630 0.114850 0.653240 18.186060 -7.260827 5.630248 -34.220424 0.121119 -33.999617 103.157605 -39.526985 17.181279 -2.657909 -10.618030 0.947160 -0.069270 -0.310150 0.117350 -3.417249 -4.650743 -9.697021 26.224055 -9.153355 30.010741 -6.973633 -2.960133 4.565601 6.371352 2.117773 -15.132927 0.444385 1.539352 45.182147 -4.572270 6.627880 -17.455100 -24.111812 -24.626926 8.692309 -7.386481 -4.198890 -5.148836 -51.462197 -79.603119 38.021735 -3.197695 3.712508 0.659150 -0.255180 0.275030 -0.023120 10.642573 23.564079 10.447437 21.969063 -1.283558 -15.601056 0.375653 73.279409 -2.343799 1.947283 -1.516222 -0.038320 -0.029330 -0.170850 -0.332430 
